# xmcd
#
# Track frame offsets:
#	150
#	15162
#	36397
#	54547
#	71075
#	87545
#	102735
#	115265
#	128917
#	146460
#
# Disc length: 2146 seconds
#
# Revision: 1
# Processed by: cddbd v1.5.2PL0 Copyright (c) Steve Scherf et al.
# Submitted via: audiograbber 1.83.01
#
DISCID=8e08600a
DTITLE=Katie Croy - Got On This Train to Ride
DYEAR=1998
DGENRE=Country
TTITLE0=Middle of a Miracle
TTITLE1=What Am I Supposed to Do
TTITLE2=Grow Up
TTITLE3=First Step
TTITLE4=Got On This Train to Ride
TTITLE5=Read My Lips
TTITLE6=Stop
TTITLE7=Smoke Screen
TTITLE8=She Wants Him to Be In Love
TTITLE9=Misery Loves Company
EXTD=
EXTT0=
EXTT1=
EXTT2=
EXTT3=
EXTT4=
EXTT5=
EXTT6=
EXTT7=
EXTT8=
EXTT9=
PLAYORDER=
